<?xml version="1.0" standalone="no"?>
<!DOCTYPE svg PUBLIC "-//W3C//DTD SVG 20010904//EN"
 "http://www.w3.org/TR/2001/REC-SVG-20010904/DTD/svg10.dtd">
<svg version="1.0" xmlns="http://www.w3.org/2000/svg"
 width="50px" height="50px" viewBox="0 0 1200.000000 1200.000000"
 preserveAspectRatio="xMidYMid meet">

<g transform="translate(0.000000,1200.000000) scale(0.100000,-0.100000)"
 stroke="none">
<path d="M10800 11940 l0 -60 -60 0 -60 0 0 -60 0 -60 -120 0 -120 0 0 -60 0
-60 -60 0 -60 0 0 -60 0 -60 -120 0 -120 0 0 -60 0 -60 -60 0 -60 0 0 -60 0
-60 -180 0 -180 0 0 -60 0 -60 -60 0 -60 0 0 -60 0 -60 -120 0 -120 0 0 -60 0
-60 -120 0 -120 0 0 -60 0 -60 -120 0 -120 0 0 -60 0 -60 -780 0 -780 0 0 -60
0 -60 -180 0 -180 0 0 -60 0 -60 -120 0 -120 0 0 -60 0 -60 -120 0 -120 0 0
-60 0 -60 -60 0 -60 0 0 -60 0 -60 -120 0 -120 0 0 -60 0 -60 -120 0 -120 0 0
-60 0 -60 -60 0 -60 0 0 -60 0 -60 -60 0 -60 0 0 -60 0 -60 -60 0 -60 0 0 -60
0 -60 -60 0 -60 0 0 -60 0 -60 -60 0 -60 0 0 -60 0 -60 -60 0 -60 0 0 -60 0
-60 -60 0 -60 0 0 -120 0 -120 -60 0 -60 0 0 -60 0 -60 -60 0 -60 0 0 -60 0
-60 -60 0 -60 0 0 -120 0 -120 -60 0 -60 0 0 -60 0 -60 -60 0 -60 0 0 -60 0
-60 120 0 120 0 0 -60 0 -60 -180 0 -180 0 0 -60 0 -60 -60 0 -60 0 0 -60 0
-60 -60 0 -60 0 0 -60 0 -60 -60 0 -60 0 0 -60 0 -60 -120 0 -120 0 0 -60 0
-60 -60 0 -60 0 0 -60 0 -60 -120 0 -120 0 0 -60 0 -60 -120 0 -120 0 0 -60 0
-60 -120 0 -120 0 0 -180 0 -180 60 0 60 0 0 -60 0 -60 60 0 60 0 0 -60 0 -60
60 0 60 0 0 -60 0 -60 60 0 60 0 0 -60 0 -60 120 0 120 0 0 -60 0 -60 120 0
120 0 0 -60 0 -60 -120 0 -120 0 0 -60 0 -60 -120 0 -120 0 0 -60 0 -60 -60 0
-60 0 0 -60 0 -60 -60 0 -60 0 0 -60 0 -60 -120 0 -120 0 0 -60 0 -60 -60 0
-60 0 0 -60 0 -60 -60 0 -60 0 0 -60 0 -60 -60 0 -60 0 0 -60 0 -60 -120 0
-120 0 0 -60 0 -60 -60 0 -60 0 0 -60 0 -60 60 0 60 0 0 60 0 60 420 0 420 0
0 -60 0 -60 -60 0 -60 0 0 -60 0 -60 -60 0 -60 0 0 -60 0 -60 -60 0 -60 0 0
-60 0 -60 -60 0 -60 0 0 -60 0 -60 -60 0 -60 0 0 -60 0 -60 -60 0 -60 0 0 -60
0 -60 -60 0 -60 0 0 -60 0 -60 -60 0 -60 0 0 -60 0 -60 -60 0 -60 0 0 -60 0
-60 -60 0 -60 0 0 -60 0 -60 -120 0 -120 0 0 -120 0 -120 120 0 120 0 0 60 0
60 180 0 180 0 0 60 0 60 60 0 60 0 0 -120 0 -120 -60 0 -60 0 0 -60 0 -60
-60 0 -60 0 0 -60 0 -60 -60 0 -60 0 0 -60 0 -60 -60 0 -60 0 0 -60 0 -60 -60
0 -60 0 0 -120 0 -120 -60 0 -60 0 0 -120 0 -120 -60 0 -60 0 0 -120 0 -120
60 0 60 0 0 60 0 60 180 0 180 0 0 -60 0 -60 -60 0 -60 0 0 -60 0 -60 -60 0
-60 0 0 -120 0 -120 -60 0 -60 0 0 -120 0 -120 -60 0 -60 0 0 -60 0 -60 120 0
120 0 0 60 0 60 60 0 60 0 0 60 0 60 60 0 60 0 0 60 0 60 60 0 60 0 0 60 0 60
60 0 60 0 0 60 0 60 60 0 60 0 0 60 0 60 60 0 60 0 0 60 0 60 60 0 60 0 0 120
0 120 60 0 60 0 0 60 0 60 60 0 60 0 0 60 0 60 60 0 60 0 0 60 0 60 60 0 60 0
0 120 0 120 -60 0 -60 0 0 -60 0 -60 -60 0 -60 0 0 -60 0 -60 -120 0 -120 0 0
-60 0 -60 -120 0 -120 0 0 -60 0 -60 -120 0 -120 0 0 60 0 60 60 0 60 0 0 60
0 60 60 0 60 0 0 60 0 60 60 0 60 0 0 60 0 60 60 0 60 0 0 60 0 60 60 0 60 0
0 60 0 60 60 0 60 0 0 60 0 60 60 0 60 0 0 60 0 60 60 0 60 0 0 60 0 60 60 0
60 0 0 60 0 60 60 0 60 0 0 60 0 60 60 0 60 0 0 60 0 60 120 0 120 0 0 -60 0
-60 -60 0 -60 0 0 -120 0 -120 -60 0 -60 0 0 -60 0 -60 -60 0 -60 0 0 -60 0
-60 60 0 60 0 0 60 0 60 120 0 120 0 0 60 0 60 60 0 60 0 0 120 0 120 60 0 60
0 0 60 0 60 60 0 60 0 0 120 0 120 60 0 60 0 0 60 0 60 60 0 60 0 0 60 0 60
120 0 120 0 0 60 0 60 60 0 60 0 0 60 0 60 60 0 60 0 0 60 0 60 60 0 60 0 0
60 0 60 60 0 60 0 0 60 0 60 -60 0 -60 0 0 -60 0 -60 -120 0 -120 0 0 -60 0
-60 -120 0 -120 0 0 -60 0 -60 -120 0 -120 0 0 60 0 60 60 0 60 0 0 120 0 120
60 0 60 0 0 60 0 60 60 0 60 0 0 60 0 60 60 0 60 0 0 60 0 60 120 0 120 0 0
60 0 60 60 0 60 0 0 60 0 60 -120 0 -120 0 0 -60 0 -60 -120 0 -120 0 0 -60 0
-60 -240 0 -240 0 0 -60 0 -60 -120 0 -120 0 0 -60 0 -60 -300 0 -300 0 0 60
0 60 60 0 60 0 0 60 0 60 60 0 60 0 0 60 0 60 60 0 60 0 0 60 0 60 60 0 60 0
0 60 0 60 60 0 60 0 0 60 0 60 180 0 180 0 0 -60 0 -60 600 0 600 0 0 60 0 60
240 0 240 0 0 60 0 60 180 0 180 0 0 60 0 60 120 0 120 0 0 -60 0 -60 180 0
180 0 0 -60 0 -60 120 0 120 0 0 -120 0 -120 60 0 60 0 0 -60 0 -60 120 0 120
0 0 60 0 60 -60 0 -60 0 0 120 0 120 -60 0 -60 0 0 60 0 60 -60 0 -60 0 0 120
0 120 -60 0 -60 0 0 60 0 60 -60 0 -60 0 0 60 0 60 -60 0 -60 0 0 60 0 60 -60
0 -60 0 0 120 0 120 -60 0 -60 0 0 120 0 120 -60 0 -60 0 0 60 0 60 -60 0 -60
0 0 60 0 60 -60 0 -60 0 0 240 0 240 -60 0 -60 0 0 -60 0 -60 -60 0 -60 0 0
120 0 120 60 0 60 0 0 420 0 420 60 0 60 0 0 120 0 120 -120 0 -120 0 0 -60 0
-60 -120 0 -120 0 0 -60 0 -60 -60 0 -60 0 0 -60 0 -60 -120 0 -120 0 0 60 0
60 60 0 60 0 0 60 0 60 60 0 60 0 0 60 0 60 60 0 60 0 0 60 0 60 60 0 60 0 0
60 0 60 120 0 120 0 0 60 0 60 180 0 180 0 0 -60 0 -60 60 0 60 0 0 -180 0
-180 -60 0 -60 0 0 -120 0 -120 60 0 60 0 0 120 0 120 60 0 60 0 0 60 0 60 60
0 60 0 0 60 0 60 60 0 60 0 0 60 0 60 60 0 60 0 0 60 0 60 120 0 120 0 0 60 0
60 -240 0 -240 0 0 60 0 60 -120 0 -120 0 0 60 0 60 60 0 60 0 0 60 0 60 60 0
60 0 0 60 0 60 60 0 60 0 0 60 0 60 120 0 120 0 0 60 0 60 60 0 60 0 0 -120 0
-120 -60 0 -60 0 0 -120 0 -120 240 0 240 0 0 60 0 60 -60 0 -60 0 0 60 0 60
60 0 60 0 0 60 0 60 60 0 60 0 0 120 0 120 240 0 240 0 0 -60 0 -60 120 0 120
0 0 -60 0 -60 -60 0 -60 0 0 -60 0 -60 -60 0 -60 0 0 -60 0 -60 -60 0 -60 0 0
-60 0 -60 -60 0 -60 0 0 -60 0 -60 -60 0 -60 0 0 -60 0 -60 -120 0 -120 0 0
-60 0 -60 -60 0 -60 0 0 -60 0 -60 -120 0 -120 0 0 -60 0 -60 -60 0 -60 0 0
-60 0 -60 -60 0 -60 0 0 -60 0 -60 -60 0 -60 0 0 -60 0 -60 -60 0 -60 0 0 -60
0 -60 -60 0 -60 0 0 -60 0 -60 -60 0 -60 0 0 -120 0 -120 -60 0 -60 0 0 -420
0 -420 60 0 60 0 0 -120 0 -120 60 0 60 0 0 -120 0 -120 60 0 60 0 0 -60 0
-60 60 0 60 0 0 -60 0 -60 60 0 60 0 0 -60 0 -60 60 0 60 0 0 -60 0 -60 60 0
60 0 0 -120 0 -120 60 0 60 0 0 -60 0 -60 60 0 60 0 0 -60 0 -60 60 0 60 0 0
-60 0 -60 60 0 60 0 0 -60 0 -60 60 0 60 0 0 -60 0 -60 60 0 60 0 0 60 0 60
60 0 60 0 0 300 0 300 60 0 60 0 0 240 0 240 -60 0 -60 0 0 240 0 240 -60 0
-60 0 0 240 0 240 -60 0 -60 0 0 600 0 600 -60 0 -60 0 0 -60 0 -60 -60 0 -60
0 0 -60 0 -60 -60 0 -60 0 0 -60 0 -60 -60 0 -60 0 0 -120 0 -120 -60 0 -60 0
0 -240 0 -240 -60 0 -60 0 0 -180 0 -180 60 0 60 0 0 -120 0 -120 60 0 60 0 0
-120 0 -120 60 0 60 0 0 180 0 180 -60 0 -60 0 0 240 0 240 60 0 60 0 0 180 0
180 60 0 60 0 0 -420 0 -420 60 0 60 0 0 -240 0 -240 60 0 60 0 0 -120 0 -120
-60 0 -60 0 0 -120 0 -120 -120 0 -120 0 0 60 0 60 -60 0 -60 0 0 60 0 60 -60
0 -60 0 0 120 0 120 -60 0 -60 0 0 60 0 60 -60 0 -60 0 0 120 0 120 -60 0 -60
0 0 120 0 120 -60 0 -60 0 0 300 0 300 60 0 60 0 0 180 0 180 60 0 60 0 0 60
0 60 60 0 60 0 0 120 0 120 60 0 60 0 0 60 0 60 60 0 60 0 0 60 0 60 60 0 60
0 0 60 0 60 120 0 120 0 0 60 0 60 60 0 60 0 0 60 0 60 120 0 120 0 0 60 0 60
120 0 120 0 0 60 0 60 180 0 180 0 0 -180 0 -180 -60 0 -60 0 0 -60 0 -60
-120 0 -120 0 0 -60 0 -60 -60 0 -60 0 0 60 0 60 -60 0 -60 0 0 -480 0 -480
60 0 60 0 0 -120 0 -120 60 0 60 0 0 360 0 360 60 0 60 0 0 120 0 120 60 0 60
0 0 60 0 60 60 0 60 0 0 60 0 60 60 0 60 0 0 -120 0 -120 -60 0 -60 0 0 -120
0 -120 -60 0 -60 0 0 -360 0 -360 60 0 60 0 0 -180 0 -180 60 0 60 0 0 -120 0
-120 60 0 60 0 0 -240 0 -240 60 0 60 0 0 -300 0 -300 60 0 60 0 0 60 0 60 60
0 60 0 0 60 0 60 -60 0 -60 0 0 540 0 540 -60 0 -60 0 0 240 0 240 -60 0 -60
0 0 300 0 300 60 0 60 0 0 180 0 180 60 0 60 0 0 60 0 60 60 0 60 0 0 60 0 60
120 0 120 0 0 60 0 60 180 0 180 0 0 60 0 60 -120 0 -120 0 0 60 0 60 -120 0
-120 0 0 240 0 240 60 0 60 0 0 60 0 60 60 0 60 0 0 60 0 60 60 0 60 0 0 60 0
60 60 0 60 0 0 60 0 60 120 0 120 0 0 60 0 60 60 0 60 0 0 60 0 60 120 0 120
0 0 60 0 60 180 0 180 0 0 60 0 60 120 0 120 0 0 -60 0 -60 120 0 120 0 0
-480 0 -480 -60 0 -60 0 0 -180 0 -180 -60 0 -60 0 0 -120 0 -120 -60 0 -60 0
0 -120 0 -120 -60 0 -60 0 0 -420 0 -420 60 0 60 0 0 -60 0 -60 60 0 60 0 0
-60 0 -60 180 0 180 0 0 60 0 60 120 0 120 0 0 -60 0 -60 -60 0 -60 0 0 -60 0
-60 -60 0 -60 0 0 -60 0 -60 -60 0 -60 0 0 -60 0 -60 -60 0 -60 0 0 -60 0 -60
-120 0 -120 0 0 -60 0 -60 -60 0 -60 0 0 -60 0 -60 -120 0 -120 0 0 -60 0 -60
-60 0 -60 0 0 -60 0 -60 -60 0 -60 0 0 -120 0 -120 -60 0 -60 0 0 -60 0 -60
-60 0 -60 0 0 -120 0 -120 -60 0 -60 0 0 -120 0 -120 -60 0 -60 0 0 -120 0
-120 -60 0 -60 0 0 240 0 240 -60 0 -60 0 0 -180 0 -180 -60 0 -60 0 0 -540 0
-540 60 0 60 0 0 -60 0 -60 -120 0 -120 0 0 120 0 120 -60 0 -60 0 0 60 0 60
-60 0 -60 0 0 120 0 120 -60 0 -60 0 0 120 0 120 -60 0 -60 0 0 300 0 300 -60
0 -60 0 0 180 0 180 -60 0 -60 0 0 -420 0 -420 60 0 60 0 0 -300 0 -300 60 0
60 0 0 -180 0 -180 60 0 60 0 0 -60 0 -60 60 0 60 0 0 -60 0 -60 60 0 60 0 0
-60 0 -60 120 0 120 0 0 -60 0 -60 120 0 120 0 0 -60 0 -60 120 0 120 0 0 -60
0 -60 180 0 180 0 0 60 0 60 -60 0 -60 0 0 60 0 60 -60 0 -60 0 0 120 0 120
-60 0 -60 0 0 120 0 120 -60 0 -60 0 0 120 0 120 60 0 60 0 0 -60 0 -60 60 0
60 0 0 -120 0 -120 60 0 60 0 0 -60 0 -60 60 0 60 0 0 -60 0 -60 60 0 60 0 0
120 0 120 -60 0 -60 0 0 180 0 180 -60 0 -60 0 0 180 0 180 -60 0 -60 0 0 180
0 180 60 0 60 0 0 180 0 180 60 0 60 0 0 120 0 120 60 0 60 0 0 120 0 120 60
0 60 0 0 60 0 60 60 0 60 0 0 60 0 60 60 0 60 0 0 60 0 60 60 0 60 0 0 60 0
60 120 0 120 0 0 60 0 60 60 0 60 0 0 60 0 60 60 0 60 0 0 60 0 60 120 0 120
0 0 60 0 60 60 0 60 0 0 60 0 60 60 0 60 0 0 120 0 120 60 0 60 0 0 120 0 120
60 0 60 0 0 180 0 180 -60 0 -60 0 0 120 0 120 -120 0 -120 0 0 60 0 60 -120
0 -120 0 0 -180 0 -180 -120 0 -120 0 0 -60 0 -60 -120 0 -120 0 0 360 0 360
60 0 60 0 0 120 0 120 60 0 60 0 0 120 0 120 60 0 60 0 0 60 0 60 60 0 60 0 0
600 0 600 -60 0 -60 0 0 180 0 180 -60 0 -60 0 0 120 0 120 -60 0 -60 0 0 60
0 60 -120 0 -120 0 0 -60z m-120 -600 l0 -60 -60 0 -60 0 0 60 0 60 60 0 60 0
0 -60z m-1680 -840 l0 -60 -60 0 -60 0 0 -120 0 -120 -180 0 -180 0 0 120 0
120 180 0 180 0 0 60 0 60 60 0 60 0 0 -60z m-600 -360 l0 -60 -60 0 -60 0 0
60 0 60 60 0 60 0 0 -60z m480 -480 l0 -60 -60 0 -60 0 0 -120 0 -120 -60 0
-60 0 0 120 0 120 60 0 60 0 0 60 0 60 60 0 60 0 0 -60z m-3720 -960 l0 -60
-60 0 -60 0 0 60 0 60 60 0 60 0 0 -60z m240 -240 l0 -60 -60 0 -60 0 0 -60 0
-60 -120 0 -120 0 0 60 0 60 120 0 120 0 0 60 0 60 60 0 60 0 0 -60z m-600
-240 l0 -60 -120 0 -120 0 0 60 0 60 120 0 120 0 0 -60z m960 -600 l0 -180
-60 0 -60 0 0 -60 0 -60 -60 0 -60 0 0 -60 0 -60 -120 0 -120 0 0 -60 0 -60
-60 0 -60 0 0 -60 0 -60 -60 0 -60 0 0 -60 0 -60 -120 0 -120 0 0 180 0 180
-180 0 -180 0 0 -60 0 -60 -60 0 -60 0 0 -60 0 -60 -120 0 -120 0 0 -60 0 -60
-60 0 -60 0 0 -60 0 -60 -120 0 -120 0 0 -60 0 -60 180 0 180 0 0 60 0 60 120
0 120 0 0 60 0 60 120 0 120 0 0 -240 0 -240 180 0 180 0 0 60 0 60 60 0 60 0
0 60 0 60 60 0 60 0 0 60 0 60 60 0 60 0 0 60 0 60 60 0 60 0 0 60 0 60 60 0
60 0 0 60 0 60 300 0 300 0 0 -60 0 -60 60 0 60 0 0 -180 0 -180 -120 0 -120
0 0 -60 0 -60 -120 0 -120 0 0 -60 0 -60 -240 0 -240 0 0 -60 0 -60 -240 0
-240 0 0 -60 0 -60 -360 0 -360 0 0 60 0 60 -180 0 -180 0 0 60 0 60 -120 0
-120 0 0 60 0 60 -120 0 -120 0 0 60 0 60 -60 0 -60 0 0 120 0 120 60 0 60 0
0 60 0 60 60 0 60 0 0 60 0 60 120 0 120 0 0 60 0 60 120 0 120 0 0 60 0 60
60 0 60 0 0 60 0 60 120 0 120 0 0 60 0 60 180 0 180 0 0 60 0 60 180 0 180 0
0 60 0 60 420 0 420 0 0 -180z m-2040 -2880 l0 -180 -60 0 -60 0 0 -60 0 -60
-60 0 -60 0 0 -60 0 -60 -60 0 -60 0 0 -60 0 -60 -120 0 -120 0 0 -60 0 -60
-120 0 -120 0 0 -60 0 -60 -60 0 -60 0 0 60 0 60 60 0 60 0 0 60 0 60 60 0 60
0 0 120 0 120 60 0 60 0 0 60 0 60 60 0 60 0 0 60 0 60 60 0 60 0 0 60 0 60
60 0 60 0 0 60 0 60 120 0 120 0 0 -180z"/>
<path d="M3480 6660 l0 -60 60 0 60 0 0 60 0 60 -60 0 -60 0 0 -60z"/>
<path d="M8280 6180 l0 -180 -60 0 -60 0 0 -300 0 -300 -60 0 -60 0 0 -180 0
-180 -60 0 -60 0 0 -300 0 -300 -180 0 -180 0 0 60 0 60 -60 0 -60 0 0 60 0
60 -60 0 -60 0 0 120 0 120 -60 0 -60 0 0 60 0 60 -60 0 -60 0 0 60 0 60 -60
0 -60 0 0 60 0 60 -60 0 -60 0 0 60 0 60 -60 0 -60 0 0 60 0 60 -60 0 -60 0 0
-60 0 -60 60 0 60 0 0 -120 0 -120 60 0 60 0 0 -180 0 -180 60 0 60 0 0 -60 0
-60 60 0 60 0 0 -120 0 -120 60 0 60 0 0 -60 0 -60 60 0 60 0 0 -60 0 -60 60
0 60 0 0 -60 0 -60 60 0 60 0 0 -60 0 -60 120 0 120 0 0 -60 0 -60 120 0 120
0 0 -60 0 -60 60 0 60 0 0 -60 0 -60 120 0 120 0 0 -60 0 -60 120 0 120 0 0
-60 0 -60 60 0 60 0 0 120 0 120 -60 0 -60 0 0 60 0 60 -60 0 -60 0 0 120 0
120 -60 0 -60 0 0 240 0 240 -60 0 -60 0 0 420 0 420 60 0 60 0 0 540 0 540
-60 0 -60 0 0 -180z"/>
<path d="M5520 5340 l0 -60 -60 0 -60 0 0 -120 0 -120 -60 0 -60 0 0 -60 0
-60 -60 0 -60 0 0 -60 0 -60 -60 0 -60 0 0 -60 0 -60 -60 0 -60 0 0 -60 0 -60
-60 0 -60 0 0 -60 0 -60 -60 0 -60 0 0 -60 0 -60 -60 0 -60 0 0 -60 0 -60
-120 0 -120 0 0 -60 0 -60 -60 0 -60 0 0 -120 0 -120 -120 0 -120 0 0 -120 0
-120 -60 0 -60 0 0 -60 0 -60 -60 0 -60 0 0 -60 0 -60 -60 0 -60 0 0 -60 0
-60 -60 0 -60 0 0 -60 0 -60 -60 0 -60 0 0 -120 0 -120 -60 0 -60 0 0 -60 0
-60 -60 0 -60 0 0 -120 0 -120 -60 0 -60 0 0 -120 0 -120 -60 0 -60 0 0 -60 0
-60 -60 0 -60 0 0 -120 0 -120 -60 0 -60 0 0 -120 0 -120 -60 0 -60 0 0 -60 0
-60 -60 0 -60 0 0 -120 0 -120 -60 0 -60 0 0 -60 0 -60 -60 0 -60 0 0 -180 0
-180 -60 0 -60 0 0 -60 0 -60 -60 0 -60 0 0 -60 0 -60 120 0 120 0 0 120 0
120 60 0 60 0 0 60 0 60 120 0 120 0 0 60 0 60 60 0 60 0 0 60 0 60 180 0 180
0 0 60 0 60 240 0 240 0 0 60 0 60 60 0 60 0 0 -60 0 -60 300 0 300 0 0 -60 0
-60 120 0 120 0 0 -180 0 -180 -60 0 -60 0 0 -60 0 -60 -60 0 -60 0 0 -60 0
-60 -60 0 -60 0 0 -60 0 -60 -60 0 -60 0 0 -60 0 -60 120 0 120 0 0 60 0 60
120 0 120 0 0 60 0 60 120 0 120 0 0 60 0 60 120 0 120 0 0 60 0 60 120 0 120
0 0 60 0 60 300 0 300 0 0 60 0 60 300 0 300 0 0 -60 0 -60 -60 0 -60 0 0 -60
0 -60 -60 0 -60 0 0 -60 0 -60 -60 0 -60 0 0 -60 0 -60 -60 0 -60 0 0 -60 0
-60 -60 0 -60 0 0 -60 0 -60 -60 0 -60 0 0 -60 0 -60 60 0 60 0 0 60 0 60 180
0 180 0 0 60 0 60 60 0 60 0 0 60 0 60 120 0 120 0 0 60 0 60 120 0 120 0 0
60 0 60 60 0 60 0 0 60 0 60 60 0 60 0 0 60 0 60 60 0 60 0 0 60 0 60 120 0
120 0 0 120 0 120 60 0 60 0 0 60 0 60 60 0 60 0 0 60 0 60 120 0 120 0 0
-120 0 -120 60 0 60 0 0 -420 0 -420 -60 0 -60 0 0 -120 0 -120 60 0 60 0 0
60 0 60 60 0 60 0 0 120 0 120 60 0 60 0 0 180 0 180 60 0 60 0 0 120 0 120
60 0 60 0 0 300 0 300 60 0 60 0 0 360 0 360 -60 0 -60 0 0 180 0 180 -60 0
-60 0 0 60 0 60 -60 0 -60 0 0 60 0 60 -60 0 -60 0 0 60 0 60 -60 0 -60 0 0
-60 0 -60 60 0 60 0 0 -120 0 -120 60 0 60 0 0 -420 0 -420 -60 0 -60 0 0 120
0 120 -60 0 -60 0 0 120 0 120 -60 0 -60 0 0 60 0 60 -60 0 -60 0 0 120 0 120
-60 0 -60 0 0 120 0 120 -60 0 -60 0 0 60 0 60 -60 0 -60 0 0 60 0 60 -60 0
-60 0 0 120 0 120 -60 0 -60 0 0 60 0 60 -60 0 -60 0 0 60 0 60 -60 0 -60 0 0
60 0 60 -60 0 -60 0 0 60 0 60 -60 0 -60 0 0 60 0 60 -60 0 -60 0 0 60 0 60
-60 0 -60 0 0 60 0 60 -60 0 -60 0 0 180 0 180 -60 0 -60 0 0 240 0 240 -60 0
-60 0 0 -300 0 -300 -60 0 -60 0 0 -180 0 -180 -60 0 -60 0 0 -120 0 -120 -60
0 -60 0 0 -60 0 -60 -60 0 -60 0 0 -60 0 -60 -120 0 -120 0 0 -60 0 -60 -60 0
-60 0 0 -60 0 -60 -60 0 -60 0 0 -60 0 -60 -120 0 -120 0 0 -60 0 -60 -60 0
-60 0 0 -60 0 -60 -60 0 -60 0 0 -60 0 -60 -60 0 -60 0 0 -120 0 -120 -60 0
-60 0 0 -60 0 -60 -60 0 -60 0 0 -120 0 -120 -60 0 -60 0 0 -60 0 -60 -60 0
-60 0 0 -120 0 -120 420 0 420 0 0 -60 0 -60 300 0 300 0 0 -60 0 -60 540 0
540 0 0 60 0 60 120 0 120 0 0 60 0 60 60 0 60 0 0 180 0 180 -60 0 -60 0 0
120 0 120 -60 0 -60 0 0 120 0 120 -60 0 -60 0 0 60 0 60 -60 0 -60 0 0 120 0
120 -240 0 -240 0 0 -60 0 -60 -60 0 -60 0 0 -60 0 -60 -120 0 -120 0 0 -60 0
-60 -60 0 -60 0 0 -60 0 -60 -60 0 -60 0 0 -120 0 -120 300 0 300 0 0 60 0 60
-60 0 -60 0 0 120 0 120 120 0 120 0 0 60 0 60 60 0 60 0 0 -60 0 -60 60 0 60
0 0 -120 0 -120 60 0 60 0 0 -180 0 -180 60 0 60 0 0 -60 0 -60 -480 0 -480 0
0 60 0 60 -180 0 -180 0 0 60 0 60 -180 0 -180 0 0 60 0 60 -60 0 -60 0 0 60
0 60 60 0 60 0 0 60 0 60 60 0 60 0 0 60 0 60 60 0 60 0 0 60 0 60 60 0 60 0
0 60 0 60 60 0 60 0 0 60 0 60 60 0 60 0 0 60 0 60 60 0 60 0 0 60 0 60 60 0
60 0 0 60 0 60 120 0 120 0 0 60 0 60 60 0 60 0 0 60 0 60 60 0 60 0 0 60 0
60 60 0 60 0 0 -60 0 -60 60 0 60 0 0 -60 0 -60 60 0 60 0 0 -60 0 -60 60 0
60 0 0 -120 0 -120 60 0 60 0 0 -60 0 -60 60 0 60 0 0 -60 0 -60 60 0 60 0 0
-120 0 -120 60 0 60 0 0 -60 0 -60 60 0 60 0 0 -120 0 -120 60 0 60 0 0 -120
0 -120 60 0 60 0 0 -240 0 -240 -60 0 -60 0 0 -60 0 -60 -60 0 -60 0 0 -60 0
-60 -60 0 -60 0 0 -60 0 -60 -120 0 -120 0 0 -60 0 -60 -240 0 -240 0 0 -60 0
-60 -360 0 -360 0 0 60 0 60 -360 0 -360 0 0 60 0 60 -240 0 -240 0 0 60 0 60
-180 0 -180 0 0 60 0 60 -420 0 -420 0 0 60 0 60 60 0 60 0 0 60 0 60 60 0 60
0 0 120 0 120 60 0 60 0 0 60 0 60 60 0 60 0 0 120 0 120 60 0 60 0 0 120 0
120 60 0 60 0 0 120 0 120 60 0 60 0 0 60 0 60 60 0 60 0 0 60 0 60 60 0 60 0
0 60 0 60 60 0 60 0 0 60 0 60 60 0 60 0 0 60 0 60 60 0 60 0 0 60 0 60 60 0
60 0 0 60 0 60 60 0 60 0 0 60 0 60 60 0 60 0 0 60 0 60 60 0 60 0 0 60 0 60
60 0 60 0 0 60 0 60 60 0 60 0 0 120 0 120 60 0 60 0 0 180 0 180 60 0 60 0 0
120 0 120 -60 0 -60 0 0 -60z"/>
<path d="M8640 4800 l0 -120 60 0 60 0 0 -120 0 -120 60 0 60 0 0 -180 0 -180
60 0 60 0 0 -180 0 -180 60 0 60 0 0 -300 0 -300 60 0 60 0 0 -540 0 -540 -60
0 -60 0 0 120 0 120 -60 0 -60 0 0 180 0 180 -60 0 -60 0 0 60 0 60 -60 0 -60
0 0 -180 0 -180 60 0 60 0 0 -180 0 -180 -60 0 -60 0 0 -360 0 -360 -60 0 -60
0 0 -240 0 -240 -60 0 -60 0 0 -120 0 -120 -60 0 -60 0 0 -120 0 -120 60 0 60
0 0 60 0 60 60 0 60 0 0 120 0 120 60 0 60 0 0 120 0 120 60 0 60 0 0 120 0
120 60 0 60 0 0 180 0 180 60 0 60 0 0 -60 0 -60 60 0 60 0 0 -120 0 -120 60
0 60 0 0 -420 0 -420 60 0 60 0 0 120 0 120 60 0 60 0 0 240 0 240 60 0 60 0
0 180 0 180 -60 0 -60 0 0 600 0 600 -60 0 -60 0 0 420 0 420 60 0 60 0 0 -60
0 -60 60 0 60 0 0 -120 0 -120 60 0 60 0 0 -120 0 -120 60 0 60 0 0 -120 0
-120 60 0 60 0 0 -120 0 -120 60 0 60 0 0 300 0 300 -60 0 -60 0 0 120 0 120
-60 0 -60 0 0 120 0 120 -60 0 -60 0 0 120 0 120 -60 0 -60 0 0 60 0 60 -60 0
-60 0 0 60 0 60 -60 0 -60 0 0 120 0 120 -60 0 -60 0 0 60 0 60 -60 0 -60 0 0
60 0 60 -60 0 -60 0 0 60 0 60 -60 0 -60 0 0 60 0 60 -60 0 -60 0 0 60 0 60
-60 0 -60 0 0 60 0 60 -60 0 -60 0 0 -120z"/>
</g>
</svg>
